<?xml version="1.0" encoding="utf-8"?>
<!-- Generator: Adobe Illustrator 26.0.1, SVG Export Plug-In . SVG Version: 6.00 Build 0)  -->
<svg version="1.1" id="Layer_1" xmlns="http://www.w3.org/2000/svg" xmlns:xlink="http://www.w3.org/1999/xlink" x="0px" y="0px"
	 viewBox="0 0 96 65" style="enable-background:new 0 0 96 65;" xml:space="preserve">
<style type="text/css">
	.st0{clip-path:url(#SVGID_00000078041512650317513860000008196842864465476778_);}
	.st1{clip-path:url(#SVGID_00000117662550285122881060000005541102416080582054_);}
	.st2{fill:#F62169;}
</style>
<g id="Artwork_1">
	<g>
		<defs>
			<rect id="SVGID_1_" x="4.7" y="1.3" width="87" height="62.3"/>
		</defs>
		<clipPath id="SVGID_00000060711659003847328560000001537014677641506999_">
			<use xlink:href="#SVGID_1_"  style="overflow:visible;"/>
		</clipPath>
		<g style="clip-path:url(#SVGID_00000060711659003847328560000001537014677641506999_);">
			<g>
				<defs>
					<rect id="SVGID_00000059292277626292728960000009336831229581123260_" x="4.7" y="1.3" width="87" height="62.3"/>
				</defs>
				<clipPath id="SVGID_00000037688770661635116260000012219832254252870291_">
					<use xlink:href="#SVGID_00000059292277626292728960000009336831229581123260_"  style="overflow:visible;"/>
				</clipPath>
				<g style="clip-path:url(#SVGID_00000037688770661635116260000012219832254252870291_);">
					<path class="st2" d="M49.2,11.8c0,0-0.7-6.8-10.3-4.8S26,15.1,26,15.1s-6.2,11.1-7.2,16.6S16,49.2,23.1,52.2s14.6-4.6,14.6-4.6
						s7.9-9.3,3.3-13.7c0,0-2.9-0.8-9.4,2.8c-2,1.1-4.6,2-7.9,4.3c0,0,1-7.9,5.8-10.9c0,0,7.8-4.6,13.4,3.6c0.7,1.3,1.2,2.8,1.4,4.3
						c0.5,3.4-0.1,4.7-1.4,6.7c-1.4,2-3.1,3.9-5,5.5c-3.8,3.1-8.3,5.2-13.2,6.2c-8.8,1.6-13.9-5.3-12.4-16.8
						c2.6-10.5,7.4-20.2,14.2-28.6c0,0,6.2-8.6,12.9-9.5S49.1,5.6,49.2,11.8"/>
					<path class="st2" d="M48,17.7c0,0-1.6,5.9,3.6,14.5c4.3,7.1,0.7,10.4-0.2,11.6c-6.5,9.2-8.7,12.5-4.8,6.4l-2.2,3.1
						c0,0-5.8,8.9,3.1,4.1l6.6-4.8c0,0-11,13.9-14.3,10.6c0,0-1.7-3.3,2.9-10.5c0,0,6.1-9.7,6.5-10.6c1-2.3,2.4-2.8-1.2-11.1
						C48.1,30.9,44.7,22.6,48,17.7"/>
					<path class="st2" d="M65.9,39.3L65.9,39.3L65.9,39.3l-0.2-0.1c-6.6-4.3-10.8-3.9-13.5-3.4c-6.2,1.1-8.4,5.3-8.4,5.3l-2.8,5
						c0.8-0.6,7.5-5.8,11.3-6.5c1.9-0.3,3.8-0.6,5.8-0.7C63.4,38.7,64.8,39.1,65.9,39.3"/>
					<path class="st2" d="M9,57.3c0.6,0.4,1,1,1.1,1.7H9.2c-0.1-0.4-0.3-0.8-0.6-1c-0.3-0.2-0.7-0.3-1.2-0.3c-0.5,0-1.1,0.2-1.4,0.7
						c-0.4,0.6-0.6,1.3-0.6,2c0,0.6,0.2,1.3,0.5,1.8c0.3,0.5,0.9,0.8,1.5,0.7c0.5,0,1-0.2,1.3-0.5c0.4-0.4,0.6-1,0.5-1.6H7.5v-0.7
						h2.7v3.4H9.6l-0.2-0.8c-0.2,0.3-0.5,0.5-0.7,0.7c-0.4,0.2-0.9,0.3-1.4,0.3c-0.7,0-1.3-0.3-1.8-0.7c-0.6-0.7-0.9-1.6-0.8-2.5
						c0-0.9,0.2-1.8,0.8-2.5C6,57.3,6.7,57,7.5,57C8,57,8.5,57.1,9,57.3"/>
					<polygon class="st2" points="11.5,57.1 12.3,57.1 12.3,62.7 15.4,62.7 15.4,63.5 11.5,63.5 					"/>
					<path class="st2" d="M21.2,58c0.4,0.6,0.6,1.4,0.6,2.2c0,0.8-0.2,1.7-0.7,2.4c-0.5,0.7-1.4,1.1-2.3,1.1c-0.9,0-1.7-0.3-2.2-1
						c-0.5-0.7-0.7-1.5-0.7-2.3c0-0.8,0.2-1.5,0.6-2.2c0.5-0.8,1.4-1.2,2.3-1.1C19.8,56.9,20.7,57.3,21.2,58 M20.5,62.1
						c0.3-0.6,0.5-1.2,0.5-1.9c0-0.6-0.2-1.3-0.6-1.8c-0.4-0.5-0.9-0.7-1.5-0.7c-0.6,0-1.2,0.2-1.5,0.7c-0.4,0.6-0.7,1.3-0.6,2
						c0,0.6,0.2,1.2,0.5,1.8c0.4,0.5,1,0.8,1.7,0.7C19.6,63,20.2,62.6,20.5,62.1"/>
					<path class="st2" d="M22.8,57.1h2.6c0.6-0.1,1.2,0.2,1.6,0.7c0.2,0.3,0.3,0.6,0.3,0.9c0,0.4-0.1,0.7-0.3,1
						c-0.1,0.2-0.3,0.3-0.5,0.4c0.3,0.1,0.5,0.2,0.7,0.4c0.3,0.3,0.4,0.7,0.4,1.1c0,0.4-0.1,0.8-0.4,1.1c-0.4,0.5-1.1,0.8-1.8,0.7
						h-2.6V57.1z M25.1,59.8c0.3,0,0.6,0,0.8-0.2c0.3-0.2,0.5-0.5,0.5-0.9c0-0.4-0.2-0.7-0.5-0.8c-0.3-0.1-0.5-0.1-0.8-0.1h-1.5v2
						L25.1,59.8z M25.4,62.7c0.4,0,0.8-0.1,1.1-0.5c0.1-0.2,0.2-0.4,0.2-0.7c0-0.4-0.2-0.8-0.6-0.9c-0.3-0.1-0.6-0.1-0.8-0.1h-1.6
						v2.2L25.4,62.7z"/>
					<path class="st2" d="M30.2,57.1h0.9l2.2,6.3h-0.9l-0.6-1.9h-2.4l-0.7,1.9H28L30.2,57.1z M31.6,60.9l-0.9-2.8l-1,2.8H31.6z"/>
					<polygon class="st2" points="34.1,57.1 35,57.1 35,62.7 38,62.7 38,63.5 34.1,63.5 					"/>
					<polygon class="st2" points="56.8,57.1 56.8,57.9 54.8,57.9 54.8,63.5 53.9,63.5 53.9,57.9 51.9,57.9 51.9,57.1 					"/>
					<polygon class="st2" points="57.6,57.1 58.4,57.1 58.4,59.8 61.5,59.8 61.5,57.1 62.4,57.1 62.4,63.5 61.5,63.5 61.5,60.5 
						58.4,60.5 58.4,63.5 57.6,63.5 					"/>
					<polygon class="st2" points="63.8,57.1 68.2,57.1 68.2,57.9 64.6,57.9 64.6,59.8 67.9,59.8 67.9,60.6 64.6,60.6 64.6,62.7 
						68.2,62.7 68.2,63.5 63.8,63.5 					"/>
					<path class="st2" d="M69.4,57.1h2.8c0.4,0,0.8,0.1,1.1,0.2c0.6,0.3,0.9,0.9,0.8,1.5c0,0.3-0.1,0.6-0.2,0.9
						c-0.2,0.2-0.4,0.4-0.6,0.6c0.2,0.1,0.4,0.2,0.5,0.4c0.1,0.2,0.2,0.5,0.2,0.8v0.8c0,0.2,0,0.4,0.1,0.5c0,0.2,0.1,0.3,0.3,0.4
						v0.1h-1c0-0.1-0.1-0.1-0.1-0.2c0-0.2,0-0.3,0-0.5v-1c0-0.3-0.1-0.7-0.4-0.8c-0.2-0.1-0.5-0.1-0.7-0.1h-1.9v2.7h-0.8V57.1z
						 M72.1,60c0.3,0,0.6-0.1,0.9-0.2c0.2-0.2,0.4-0.5,0.3-0.9c0-0.4-0.1-0.7-0.4-0.9c-0.2-0.1-0.4-0.1-0.7-0.1h-2V60H72.1z"/>
					<path class="st2" d="M77.2,57.1h0.9l2.2,6.3h-0.9l-0.6-1.9h-2.4l-0.7,1.9h-0.8L77.2,57.1z M78.6,60.9l-0.9-2.8l-1,2.8H78.6z"/>
					<path class="st2" d="M81.2,57.1h2.7c0.5,0,1,0.2,1.3,0.5c0.4,0.4,0.5,0.9,0.5,1.4c0,0.5-0.1,0.9-0.4,1.3
						c-0.3,0.4-0.8,0.6-1.3,0.5H82v2.7h-0.8L81.2,57.1z M84.4,58c-0.2-0.1-0.5-0.1-0.8-0.1H82v2.2h1.6c0.3,0,0.6-0.1,0.9-0.2
						c0.3-0.2,0.4-0.5,0.3-0.9C84.9,58.6,84.7,58.2,84.4,58"/>
					<polygon class="st2" points="86.3,57.1 87.2,57.1 89,60.2 90.8,57.1 91.7,57.1 89.4,60.9 89.4,63.5 88.6,63.5 88.6,60.9 					
						"/>
				</g>
			</g>
		</g>
	</g>
</g>
</svg>
