<?xml version="1.0" encoding="utf-8"?>
<!-- Generator: Adobe Illustrator 26.0.1, SVG Export Plug-In . SVG Version: 6.00 Build 0)  -->
<svg version="1.1" id="Layer_2_00000067930419748383569750000012728461053610944925_"
	 xmlns="http://www.w3.org/2000/svg" xmlns:xlink="http://www.w3.org/1999/xlink" x="0px" y="0px" viewBox="0 0 87 62.3"
	 style="enable-background:new 0 0 87 62.3;" xml:space="preserve">
<style type="text/css">
	.st0{fill:#9CB99C;}
</style>
<g>
	
		<image style="overflow:visible;opacity:0.25;" width="50" height="68" xlink:href="462BBB84.png"  transform="matrix(1 0 0 1 3 -4.7)">
	</image>
	<g>
		<path class="st0" d="M44.5,10.4c0,0-0.7-6.8-10.3-4.8s-12.9,8.1-12.9,8.1s-6.2,11.1-7.2,16.6s-2.8,17.5,4.3,20.5S33,46.2,33,46.2
			s7.9-9.3,3.3-13.7c0,0-2.9-0.8-9.4,2.8c-2.7,1.2-5.4,2.7-7.9,4.3c0,0,1-7.9,5.8-10.9c0,0,7.8-4.6,13.4,3.6
			c0.7,1.3,1.2,2.8,1.4,4.3c0.5,3.4-0.1,4.7-1.4,6.7c-1.4,2-3.1,3.9-5,5.5C29.4,51.9,24.9,54,20,55c-8.8,1.6-13.9-5.3-12.4-16.8
			C10.2,27.7,15,18,21.8,9.6c0,0,6.2-8.6,12.9-9.5S44.4,4.2,44.5,10.4"/>
	</g>
</g>
<g>
	
		<image style="overflow:visible;opacity:0.25;" width="28" height="59" xlink:href="462BBB85.png"  transform="matrix(1 0 0 1 30 12.3)">
	</image>
	<g>
		<path class="st0" d="M43.3,16.3c0,0-1.6,5.9,3.6,14.5c4.3,7.1,0.7,10.4-0.2,11.6c-6.5,9.2-8.7,12.5-4.8,6.4l-2.2,3.1
			c0,0-5.8,8.9,3.1,4.1l6.6-4.8c0,0-11,13.9-14.3,10.6c0,0-1.7-3.3,2.9-10.5c0,0,6.1-9.7,6.5-10.6c1-2.3,2.4-2.8-1.2-11.1
			C43.4,29.5,40,21.2,43.3,16.3"/>
	</g>
</g>
<g>
	
		<image style="overflow:visible;opacity:0.25;" width="38" height="24" xlink:href="462BBB83.png"  transform="matrix(1 0 0 1 32 29.3)">
	</image>
	<g>
		<path class="st0" d="M61.2,37.9L61.2,37.9L61,37.8c-6.6-4.3-10.8-3.9-13.5-3.4c-6.2,1.1-8.4,5.3-8.4,5.3l-2.8,5
			c0.8-0.6,7.5-5.8,11.3-6.5c1.9-0.3,3.9-0.6,5.8-0.7C58.7,37.3,60.1,37.7,61.2,37.9"/>
	</g>
</g>
<g>
	
		<image style="overflow:visible;opacity:0.25;" width="19" height="19" xlink:href="462BBB8C.png"  transform="matrix(1 0 0 1 -5 51.3)">
	</image>
	<g>
		<path class="st0" d="M4.3,55.9c0.6,0.4,1,1,1.1,1.7H4.5c-0.1-0.4-0.3-0.7-0.6-1c-0.4-0.2-0.8-0.3-1.2-0.3c-0.6,0-1.1,0.2-1.4,0.7
			c-0.4,0.6-0.6,1.3-0.6,2c0,0.6,0.2,1.3,0.5,1.8s0.9,0.8,1.5,0.7c0.5,0,0.9-0.2,1.3-0.5c0.4-0.4,0.6-1,0.5-1.6H2.8v-0.7h2.7v3.4
			H4.9l-0.2-0.8C4.5,61.6,4.3,61.8,4,62c-0.4,0.2-0.9,0.3-1.4,0.3c-0.7,0-1.3-0.3-1.8-0.7C0.2,60.9-0.1,60,0,59.1
			c0-0.9,0.2-1.8,0.8-2.5c0.5-0.7,1.2-1,2-1C3.3,55.6,3.8,55.7,4.3,55.9"/>
	</g>
</g>
<g>
	
		<image style="overflow:visible;opacity:0.25;" width="17" height="19" xlink:href="462BBB8F.png"  transform="matrix(1 0 0 1 2 51.3)">
	</image>
	<g>
		<polygon class="st0" points="6.8,55.7 7.6,55.7 7.6,61.3 10.7,61.3 10.7,62.1 6.8,62.1 		"/>
	</g>
</g>
<g>
	
		<image style="overflow:visible;opacity:0.25;" width="19" height="20" xlink:href="462BBB8D.png"  transform="matrix(1 0 0 1 7 51.3)">
	</image>
	<g>
		<path class="st0" d="M16.5,56.6c0.4,0.7,0.6,1.4,0.6,2.2c0,0.9-0.2,1.7-0.7,2.4s-1.4,1.1-2.3,1.1c-0.9,0.1-1.7-0.3-2.2-1
			s-0.7-1.5-0.7-2.3s0.2-1.5,0.6-2.2c0.5-0.8,1.4-1.2,2.3-1.1C15,55.5,16,55.9,16.5,56.6 M15.8,60.7c0.3-0.6,0.5-1.2,0.5-1.9
			c0-0.6-0.2-1.3-0.6-1.8s-0.9-0.7-1.5-0.7S13,56.5,12.7,57c-0.4,0.6-0.6,1.3-0.6,2c0,0.6,0.2,1.2,0.5,1.8c0.4,0.5,1,0.8,1.7,0.7
			C14.9,61.6,15.5,61.2,15.8,60.7"/>
	</g>
</g>
<g>
	
		<image style="overflow:visible;opacity:0.25;" width="17" height="19" xlink:href="462BBB82.png"  transform="matrix(1 0 0 1 14 51.3)">
	</image>
	<g>
		<path class="st0" d="M18.1,55.7h2.6c0.6-0.1,1.2,0.2,1.6,0.7c0.2,0.3,0.3,0.6,0.3,0.9c0,0.4-0.1,0.7-0.3,1
			c-0.1,0.2-0.3,0.3-0.5,0.4c0.3,0.1,0.5,0.2,0.7,0.4c0.5,0.6,0.5,1.6,0,2.2c-0.4,0.5-1.1,0.8-1.8,0.7h-2.6
			C18.1,62,18.1,55.7,18.1,55.7z M20.4,58.4c0.3,0,0.6,0,0.8-0.2c0.3-0.2,0.5-0.5,0.5-0.9c0-0.3-0.2-0.7-0.5-0.8s-0.5-0.1-0.8-0.1
			h-1.5v2H20.4z M20.7,61.3c0.4,0,0.8-0.2,1.1-0.5c0.1-0.2,0.2-0.5,0.2-0.7c0-0.4-0.2-0.8-0.6-0.9c-0.3-0.1-0.5-0.1-0.8-0.1H19v2.2
			H20.7z"/>
	</g>
</g>
<g>
	
		<image style="overflow:visible;opacity:0.25;" width="18" height="19" xlink:href="462BBB86.png"  transform="matrix(1 0 0 1 19 51.3)">
	</image>
	<g>
		<path class="st0" d="M25.5,55.7h0.9l2.2,6.3h-0.9l-0.6-1.9h-2.4L24,62h-0.7L25.5,55.7z M26.9,59.5L26,56.7l-1,2.8H26.9z"/>
	</g>
</g>
<g>
	
		<image style="overflow:visible;opacity:0.25;" width="17" height="19" xlink:href="462BBB87.png"  transform="matrix(1 0 0 1 25 51.3)">
	</image>
	<g>
		<polygon class="st0" points="29.4,55.7 30.3,55.7 30.3,61.3 33.3,61.3 33.3,62.1 29.4,62.1 		"/>
	</g>
</g>
<g>
	
		<image style="overflow:visible;opacity:0.25;" width="18" height="19" xlink:href="24521A63.png"  transform="matrix(1 0 0 1 43 51.3)">
	</image>
	<g>
		<polygon class="st0" points="52.1,55.7 52.1,56.5 50.1,56.5 50.1,62.1 49.2,62.1 49.2,56.5 47.2,56.5 47.2,55.7 		"/>
	</g>
</g>
<g>
	
		<image style="overflow:visible;opacity:0.25;" width="18" height="19" xlink:href="24521A61.png"  transform="matrix(1 0 0 1 48 51.3)">
	</image>
	<g>
		<polygon class="st0" points="52.9,55.7 53.7,55.7 53.7,58.4 56.8,58.4 56.8,55.7 57.7,55.7 57.7,62.1 56.8,62.1 56.8,59.1 
			53.7,59.1 53.7,62.1 52.9,62.1 		"/>
	</g>
</g>
<g>
	
		<image style="overflow:visible;opacity:0.25;" width="17" height="19" xlink:href="24521A67.png"  transform="matrix(1 0 0 1 55 51.3)">
	</image>
	<g>
		<polygon class="st0" points="59.1,55.7 63.5,55.7 63.5,56.5 59.9,56.5 59.9,58.4 63.2,58.4 63.2,59.2 59.9,59.2 59.9,61.3 
			63.5,61.3 63.5,62.1 59.1,62.1 		"/>
	</g>
</g>
<g>
	
		<image style="overflow:visible;opacity:0.25;" width="18" height="19" xlink:href="24521A62.png"  transform="matrix(1 0 0 1 60 51.3)">
	</image>
	<g>
		<path class="st0" d="M64.7,55.7h2.8c0.4,0,0.7,0.1,1.1,0.2c0.6,0.3,0.9,0.9,0.8,1.5c0,0.3-0.1,0.6-0.2,0.9l-0.6,0.6
			c0.2,0.1,0.4,0.2,0.5,0.4s0.2,0.5,0.2,0.8v0.8c0,0.2,0,0.4,0.1,0.5c0,0.2,0.1,0.3,0.3,0.4v0.1h-1c0-0.1-0.1-0.1-0.1-0.2v-1.5
			c0-0.3-0.1-0.7-0.4-0.8c-0.2-0.1-0.5-0.1-0.7-0.1h-1.9V62h-0.8L64.7,55.7L64.7,55.7z M67.4,58.6c0.3,0,0.6-0.1,0.9-0.2
			c0.3-0.2,0.4-0.6,0.3-0.9c0-0.3-0.1-0.7-0.4-0.9c-0.2-0.1-0.5-0.1-0.7-0.1h-2v2.1C65.5,58.6,67.4,58.6,67.4,58.6z"/>
	</g>
</g>
<g>
	
		<image style="overflow:visible;opacity:0.25;" width="18" height="19" xlink:href="24521A7D.png"  transform="matrix(1 0 0 1 66 51.3)">
	</image>
	<g>
		<path class="st0" d="M72.5,55.7h0.9l2.2,6.3h-0.9l-0.6-1.9h-2.4L71,62h-0.8L72.5,55.7z M73.9,59.5L73,56.7l-1,2.8H73.9z"/>
	</g>
</g>
<g>
	
		<image style="overflow:visible;opacity:0.25;" width="17" height="19" xlink:href="24521A7E.png"  transform="matrix(1 0 0 1 72 51.3)">
	</image>
	<g>
		<path class="st0" d="M76.5,55.7h2.7c0.5,0,0.9,0.2,1.3,0.5c0.4,0.4,0.5,0.9,0.5,1.4s-0.1,0.9-0.4,1.3c-0.3,0.4-0.8,0.6-1.3,0.5h-2
			v2.7h-0.8C76.5,62.1,76.5,55.7,76.5,55.7z M79.7,56.6c-0.3-0.1-0.5-0.1-0.8-0.1h-1.6v2.2h1.6c0.3,0,0.6-0.1,0.9-0.2
			c0.3-0.2,0.4-0.6,0.3-0.9C80.2,57.2,80,56.8,79.7,56.6"/>
	</g>
</g>
<g>
	
		<image style="overflow:visible;opacity:0.25;" width="18" height="19" xlink:href="24521A7F.png"  transform="matrix(1 0 0 1 77 51.3)">
	</image>
	<g>
		<polygon class="st0" points="81.6,55.7 82.5,55.7 84.3,58.8 86.1,55.7 87,55.7 84.7,59.5 84.7,62.1 83.9,62.1 83.9,59.5 		"/>
	</g>
</g>
</svg>
